<svg xmlns="http://www.w3.org/2000/svg" viewBox="0 0 460 250" role="img" aria-label="HK Terrassement">
  <g fill="#F07C1E">
    <!-- H -->
    <rect x="74"  y="16" width="40" height="150" rx="2"/>
    <rect x="154" y="16" width="40" height="150" rx="2"/>
    <rect x="114" y="74" width="40" height="34"/>
    <!-- K -->
    <rect x="244" y="16" width="40" height="150" rx="2"/>
    <polygon points="284,88 344,16 386,16 308,100 386,166 344,166 284,104"/>
  </g>

  <!-- TERR (cœur-A) SSEMENT -->
  <g font-family="Arial Black, Arial, sans-serif" font-weight="900" font-size="46" letter-spacing="1" fill="#111111">
    <text x="31"  y="232" text-anchor="start">TERR</text>
    <text x="200" y="232" text-anchor="start">SSEMENT</text>
  </g>
  <!-- Cœur orange à la place du A -->
  <g transform="translate(160,198) scale(1.2)">
    <path fill="#F07C1E"
      d="M23.6,0c-3.4,0-6.3,2.7-7.6,5.6C14.7,2.7,11.8,0,8.4,0C3.8,0,0,3.8,0,8.4
         c0,9.4,9.5,11.9,16,21.2c6.1-9.3,16-12.1,16-21.2C32,3.8,28.2,0,23.6,0z"/>
  </g>
  <text x="179" y="228" text-anchor="middle" font-family="Arial Black, Arial, sans-serif"
        font-weight="900" font-size="22" fill="#ffffff">A</text>
</svg>
